<svg width="588" height="179" viewBox="0 0 588 179" fill="none" xmlns="http://www.w3.org/2000/svg">
<path d="M233.39 22.73L259.81 80.84H242.69L220.53 29.55H225.18L202.94 80.84H185.82L212.24 22.73H233.39ZM202.48 69.68V56.74H242.54V69.68H202.48Z" fill="#282828"/>
<path d="M289.791 73.64H282.971L305.361 22.74H322.331L295.291 80.85H277.081L250.041 22.74H267.241L289.791 73.64Z" fill="#282828"/>
<path d="M345.891 51.79L342.091 75.11L335.581 67.83H380.051V80.85H326.051L330.471 51.8L326.051 22.75H379.661V35.77H335.581L342.091 28.49L345.891 51.79ZM377.501 45.98V57.6H334.961V45.98H377.501Z" fill="#282828"/>
<path d="M443.2 69.61L438.24 70.62V22.74H453.81V80.85H433.59L400.04 33.05L404.92 32.04V80.85H389.35V22.74H410.11L443.2 69.61Z" fill="#282828"/>
<path d="M460.711 22.73H521.141V36.99H460.711V22.73ZM482.871 29.78H498.991V80.84H482.871V29.78Z" fill="#282828"/>
<path d="M560.961 22.73L587.381 80.84H570.261L548.101 29.55H552.751L530.511 80.84H513.391L539.811 22.73H560.961ZM530.051 69.68V56.74H570.111V69.68H530.051Z" fill="#282828"/>
<path d="M185.42 124.32H193.03C193.26 126.02 193.97 127.52 195.16 128.81C196.35 130.1 197.93 131.09 199.9 131.79C201.87 132.49 204.14 132.84 206.71 132.84C210.53 132.84 213.56 132.24 215.79 131.05C218.02 129.86 219.14 128.24 219.14 126.2C219.14 124.53 218.5 123.29 217.21 122.45C215.92 121.62 213.59 120.99 210.23 120.58L201.03 119.39C195.88 118.71 192.14 117.43 189.82 115.56C187.49 113.69 186.33 111.03 186.33 107.58C186.33 104.97 187.12 102.71 188.69 100.79C190.26 98.8799 192.48 97.3999 195.36 96.3599C198.24 95.3199 201.61 94.7999 205.47 94.7999C209.29 94.7999 212.68 95.3699 215.63 96.4999C218.58 97.6399 220.94 99.2199 222.7 101.24C224.46 103.27 225.42 105.64 225.57 108.37H217.96C217.77 106.86 217.14 105.55 216.06 104.45C214.98 103.35 213.53 102.49 211.72 101.87C209.9 101.25 207.76 100.93 205.3 100.93C201.82 100.93 199.03 101.5 196.95 102.63C194.87 103.77 193.83 105.32 193.83 107.29C193.83 108.8 194.45 109.97 195.68 110.78C196.91 111.59 199.06 112.21 202.12 112.62L211.43 113.93C215.25 114.46 218.27 115.17 220.49 116.06C222.7 116.95 224.28 118.14 225.23 119.64C226.18 121.14 226.65 123.06 226.65 125.4C226.65 128.13 225.82 130.51 224.15 132.55C222.48 134.59 220.15 136.17 217.14 137.29C214.13 138.41 210.62 138.96 206.61 138.96C202.52 138.96 198.92 138.34 195.79 137.11C192.66 135.88 190.2 134.17 188.38 131.97C186.55 129.79 185.57 127.24 185.42 124.32Z" fill="#282828"/>
<path d="M308.97 95.59V138.17H301.82V97.8599L304.15 97.9699L284.33 138.17H276.32L256.5 98.03L258.83 97.9199V138.18H251.68V95.5999H263.15L282.23 134.95H278.48L297.5 95.5999H308.97V95.59Z" fill="#282828"/>
<path d="M362 95.59L382.44 138.17H374.43L355.86 98.4199H358.76L340.19 138.17H332.18L352.62 95.59H362ZM342.24 128.41V122.22H371.99V128.41H342.24Z" fill="#282828"/>
<path d="M410.88 114.78H428.2C430.7 114.78 432.68 114.21 434.13 113.08C435.59 111.95 436.32 110.39 436.32 108.42C436.32 106.41 435.59 104.85 434.13 103.74C432.67 102.62 430.69 102.07 428.2 102.07H409.8L413.15 97.8699V138.18H405.66V95.5999H428.88C431.87 95.5999 434.49 96.1398 436.74 97.2198C438.99 98.2998 440.75 99.7899 442.02 101.71C443.29 103.62 443.92 105.86 443.92 108.44C443.92 110.94 443.29 113.14 442.02 115.05C440.75 116.96 438.99 118.46 436.74 119.54C434.49 120.62 431.87 121.16 428.88 121.16H410.88V114.78ZM419.29 118.25H428.09L445.01 138.18H436.04L419.29 118.25Z" fill="#282828"/>
<path d="M464.42 95.59H507.12V102.18H464.42V95.59ZM482.03 99.0599H489.53V138.18H482.03V99.0599Z" fill="#282828"/>
<path d="M160.781 86.13C150.301 86.22 140.411 88.78 131.641 93.25V113.7C139.711 107.43 149.811 103.65 160.781 103.54V86.13Z" fill="#2A5AC6"/>
<path d="M131.74 72.38C140.8 69 150.58 67.13 160.78 67.07V49.12C150.69 49.18 140.95 50.69 131.74 53.46V72.38Z" fill="#2A5AC6"/>
<path d="M167.828 171.091C173.566 167.066 174.955 159.153 170.93 153.415C166.906 147.677 158.992 146.288 153.255 150.312C147.517 154.336 146.128 162.25 150.152 167.988C154.176 173.726 162.09 175.115 167.828 171.091Z" fill="#2A5AC6"/>
<path d="M53.2209 36.78C57.3909 34.62 61.3508 33.02 65.1108 31.98C68.8708 30.94 72.1808 30.29 75.0508 30.03C77.9208 29.77 79.8009 29.64 80.6909 29.64H131.731V33.73C141.041 31.4 150.761 30.13 160.771 30.09V15.24C160.771 13.23 160.401 11.33 159.651 9.53998C158.901 7.74998 157.861 6.18998 156.521 4.84998C155.181 3.50998 153.621 2.46997 151.831 1.71997C150.041 0.979971 148.141 0.599976 146.131 0.599976H80.7009C69.1609 0.599976 58.5109 2.56996 48.7609 6.51996C39.0009 10.47 30.5509 15.98 23.4109 23.05C16.2609 30.13 10.6809 38.57 6.66086 48.4C2.64086 58.23 0.630859 68.99 0.630859 80.68V160.76H29.6709V137.88V121.45V92.4V86.44V80.67C29.6709 72.5499 30.8008 65.65 33.0808 59.95C35.3508 54.25 38.2408 49.51 41.7408 45.71C45.2208 41.92 49.0509 38.94 53.2209 36.78Z" fill="#4674F7"/>
<path d="M160.761 75.84C113.941 75.81 75.8313 113.92 75.8613 160.74H94.9414C94.9414 124.43 124.481 94.89 160.791 94.89L160.761 75.84Z" fill="#4674F7"/>
<path d="M160.732 38.84C93.5416 38.87 38.8816 93.5299 38.8516 160.72H57.9315C57.9015 104.02 104.032 57.9 160.752 57.9L160.732 38.84Z" fill="#4674F7"/>
<path d="M138.342 138.52C144.522 132.34 152.652 129.27 160.752 129.33V112.3C134.012 112.25 112.262 134 112.262 160.74H129.152C129.142 152.7 132.212 144.66 138.342 138.52Z" fill="#4674F7"/>
</svg>
